<?xml version="1.0" encoding="UTF-8" standalone="no"?>
<!-- Generator: Adobe Illustrator 18.0.0, SVG Export Plug-In . SVG Version: 6.00 Build 0)  -->

<svg
   xmlns:dc="http://purl.org/dc/elements/1.1/"
   xmlns:cc="http://creativecommons.org/ns#"
   xmlns:rdf="http://www.w3.org/1999/02/22-rdf-syntax-ns#"
   xmlns:svg="http://www.w3.org/2000/svg"
   xmlns="http://www.w3.org/2000/svg"
   xmlns:sodipodi="http://sodipodi.sourceforge.net/DTD/sodipodi-0.dtd"
   xmlns:inkscape="http://www.inkscape.org/namespaces/inkscape"
   version="1.1"
   id="svg2"
   inkscape:export-ydpi="90"
   inkscape:export-xdpi="90"
   inkscape:export-filename="E:\workspace_fablab\Vector\all.png"
   sodipodi:docname="LCD_Halterung.svg"
   inkscape:version="0.48.5 r10040"
   x="0px"
   y="0px"
   viewBox="0 0 903.5 1002.8"
   enable-background="new 0 0 903.5 1002.8"
   xml:space="preserve"
   width="100%"
   height="100%"><sodipodi:namedview
   id="base"
   units="mm"
   borderopacity="1.0"
   inkscape:cx="376.72955"
   bordercolor="#666666"
   inkscape:cy="791.48348"
   showgrid="false"
   inkscape:zoom="1.0253049"
   pagecolor="#ffffff"
   inkscape:window-maximized="1"
   inkscape:window-y="-8"
   inkscape:window-x="-8"
   inkscape:window-height="878"
   inkscape:current-layer="g8361"
   inkscape:pageshadow="2"
   inkscape:pageopacity="0.0"
   inkscape:document-units="px"
   inkscape:window-width="1515">
	</sodipodi:namedview><metadata
   id="metadata100"><rdf:RDF><cc:Work
       rdf:about=""><dc:format>image/svg+xml</dc:format><dc:type
         rdf:resource="http://purl.org/dc/dcmitype/StillImage" /><dc:title /></cc:Work></rdf:RDF></metadata><defs
   id="defs98" />

<g
   inkscape:groupmode="layer"
   inkscape:label="Ebene 1"
   transform="translate(0,-49.605325)"
   id="layer1">
	
	
	
	
</g>
<g
   inkscape:groupmode="layer"
   inkscape:label="newlayer"
   id="g8361">
	
	
	
	
	
	
		

	
	
		

	
	
		

	
	
		

	
		
	

	
		
	

	
		
	

	
		
	

	
		
	

	
		
	

	
		
	

	
		
	

	
		
	

	
	
	
	
		
	

	
		
	

<rect
   style="fill:none;stroke:#ff0000;stroke-width:0.25;stroke-miterlimit:4;stroke-opacity:1;stroke-dasharray:none"
   id="rect3320"
   width="317.93103"
   height="220.68965"
   x="34.599331"
   y="8.9235821" /><path
   style="fill:none;stroke:#00ffff;stroke-width:0.33851796;stroke-miterlimit:4;stroke-opacity:1;stroke-dasharray:none"
   d="m 62.256389,22.548561 0,45.53125 53.718751,0 0,141.968749 155.1875,0 0,-181.906249 -144.75,0 0,-5.59375 -64.156251,0 z"
   id="rect2995"
   inkscape:connector-curvature="0" /><rect
   style="fill:none;stroke:#ff00ff;stroke-width:0.24467701;stroke-miterlimit:4;stroke-opacity:1;stroke-dasharray:none"
   id="rect3000"
   width="287.14026"
   height="175.05945"
   x="49.042835"
   y="30.018948" /><path
   sodipodi:type="arc"
   style="fill:none;stroke:#ffcc00;stroke-width:0.25;stroke-miterlimit:4;stroke-opacity:1;stroke-dasharray:none"
   id="path3258-5"
   sodipodi:cx="88.022606"
   sodipodi:cy="894.53949"
   sodipodi:rx="17.799585"
   sodipodi:ry="18.043415"
   d="m 105.82219,894.53949 a 17.799585,18.043415 0 1 1 -35.599169,0 17.799585,18.043415 0 1 1 35.599169,0 z"
   transform="matrix(0.29653194,0,0,0.29252475,25.598711,-48.422939)" /><path
   sodipodi:type="arc"
   style="fill:none;stroke:#ffcc00;stroke-width:0.25;stroke-miterlimit:4;stroke-opacity:1;stroke-dasharray:none"
   id="path3258-7-1"
   sodipodi:cx="88.022606"
   sodipodi:cy="894.53949"
   sodipodi:rx="17.799585"
   sodipodi:ry="18.043415"
   d="m 105.82219,894.53949 a 17.799585,18.043415 0 1 1 -35.599169,0 17.799585,18.043415 0 1 1 35.599169,0 z"
   transform="matrix(0.29653194,0,0,0.29252475,309.06328,-239.76153)" /><path
   sodipodi:type="arc"
   style="fill:none;stroke:#ffcc00;stroke-width:0.25;stroke-miterlimit:4;stroke-opacity:1;stroke-dasharray:none"
   id="path3258-7-6-7"
   sodipodi:cx="88.022606"
   sodipodi:cy="894.53949"
   sodipodi:rx="17.799585"
   sodipodi:ry="18.043415"
   d="m 105.82219,894.53949 a 17.799585,18.043415 0 1 1 -35.599169,0 17.799585,18.043415 0 1 1 35.599169,0 z"
   transform="matrix(0.29653194,0,0,0.29252475,309.06328,-48.422939)" /><path
   sodipodi:type="arc"
   style="fill:none;stroke:#ffcc00;stroke-width:0.25;stroke-miterlimit:4;stroke-opacity:1;stroke-dasharray:none"
   id="path3258-7-6-1-1"
   sodipodi:cx="88.022606"
   sodipodi:cy="894.53949"
   sodipodi:rx="17.799585"
   sodipodi:ry="18.043415"
   d="m 105.82219,894.53949 a 17.799585,18.043415 0 1 1 -35.599169,0 17.799585,18.043415 0 1 1 35.599169,0 z"
   transform="matrix(0.29653194,0,0,0.29252475,25.598711,-239.76153)" /><rect
   style="fill:none;stroke:#008000;stroke-width:0.25963756;stroke-miterlimit:4;stroke-opacity:1;stroke-dasharray:none"
   id="rect3320-1"
   width="342.9162"
   height="220.68965"
   x="9.6502857"
   y="8.9374723" /><path
   sodipodi:type="arc"
   style="fill:none;stroke:#008080;stroke-width:0.25000000000000000;stroke-miterlimit:4;stroke-opacity:1;stroke-dasharray:none"
   id="path3258-7-6-1-4-24"
   sodipodi:cx="88.022606"
   sodipodi:cy="894.53949"
   sodipodi:rx="17.799585"
   sodipodi:ry="18.043415"
   d="m 105.82219,894.53949 a 17.799585,18.043415 0 1 1 -35.599169,0 17.799585,18.043415 0 1 1 35.599169,0 z"
   transform="matrix(0.29653194,0,0,0.29252475,99.17586,-145.35052)" /><path
   sodipodi:type="arc"
   style="fill:none;stroke:#008080;stroke-width:0.25000000000000000;stroke-miterlimit:4;stroke-opacity:1;stroke-dasharray:none"
   id="path3258-7-6-1-4-2-5"
   sodipodi:cx="88.022606"
   sodipodi:cy="894.53949"
   sodipodi:rx="17.799585"
   sodipodi:ry="18.043415"
   d="m 105.82219,894.53949 a 17.799585,18.043415 0 1 1 -35.599169,0 17.799585,18.043415 0 1 1 35.599169,0 z"
   transform="matrix(0.29653194,0,0,0.29252475,208.48621,-145.00569)" /></g>
<g
   id="g3163"
   inkscape:groupmode="layer"
   inkscape:label="newlayer" /></svg>