<?xml version="1.0" encoding="UTF-8" standalone="no"?>
<!-- Created with Inkscape (http://www.inkscape.org/) -->

<svg
   xmlns:dc="http://purl.org/dc/elements/1.1/"
   xmlns:cc="http://creativecommons.org/ns#"
   xmlns:rdf="http://www.w3.org/1999/02/22-rdf-syntax-ns#"
   xmlns:svg="http://www.w3.org/2000/svg"
   xmlns="http://www.w3.org/2000/svg"
   xmlns:sodipodi="http://sodipodi.sourceforge.net/DTD/sodipodi-0.dtd"
   xmlns:inkscape="http://www.inkscape.org/namespaces/inkscape"
   width="754.72437"
   height="1052.3622"
   id="svg3145"
   version="1.1"
   inkscape:version="0.48.5 r10040"
   sodipodi:docname="phoenix_klemmen.svg">
  <defs
     id="defs3" />
  <sodipodi:namedview
     inkscape:document-units="mm"
     id="base"
     pagecolor="#ffffff"
     bordercolor="#666666"
     borderopacity="1.0"
     inkscape:pageopacity="0.0"
     inkscape:pageshadow="2"
     inkscape:zoom="2.8"
     inkscape:cx="194.01566"
     inkscape:cy="939.70794"
     inkscape:current-layer="layer1"
     showgrid="false"
     inkscape:window-width="1515"
     inkscape:window-height="878"
     inkscape:window-x="-8"
     inkscape:window-y="-8"
     inkscape:window-maximized="1"
     units="mm" />
  <metadata
     id="metadata4">
    <rdf:RDF>
      <cc:Work
         rdf:about="">
        <dc:format>image/svg+xml</dc:format>
        <dc:type
           rdf:resource="http://purl.org/dc/dcmitype/StillImage" />
        <dc:title></dc:title>
      </cc:Work>
    </rdf:RDF>
  </metadata>
  <g
     inkscape:label="Layer 1"
     inkscape:groupmode="layer"
     id="layer1">
    <rect
       style="fill:none;stroke:#ff0000;stroke-width:0.18746285;stroke-miterlimit:4;stroke-opacity:1;stroke-dasharray:none"
       id="rect3035"
       width="77.765289"
       height="56.505451"
       x="59.750977"
       y="120.64157" />
    <path
       sodipodi:type="arc"
       style="fill:none;stroke:#008000;stroke-width:0.25;stroke-miterlimit:4;stroke-opacity:1;stroke-dasharray:none"
       id="path3037"
       sodipodi:cx="29.623907"
       sodipodi:cy="954.09222"
       sodipodi:rx="4.6265774"
       sodipodi:ry="5.8004851"
       d="m 34.250484,954.09222 a 4.6265774,5.8004851 0 1 1 -9.253154,0 4.6265774,5.8004851 0 1 1 9.253154,0 z"
       transform="matrix(1.4956297,0,0,1.1929427,29.524079,-971.56652)" />
    <path
       sodipodi:type="arc"
       style="fill:none;stroke:#008000;stroke-width:0.25;stroke-miterlimit:4;stroke-opacity:1;stroke-dasharray:none"
       id="path3037-7"
       sodipodi:cx="29.623907"
       sodipodi:cy="954.09222"
       sodipodi:rx="4.6265774"
       sodipodi:ry="5.8004851"
       d="m 34.250484,954.09222 a 4.6265774,5.8004851 0 1 1 -9.253154,0 4.6265774,5.8004851 0 1 1 9.253154,0 z"
       transform="matrix(1.4956297,0,0,1.1929427,79.130378,-971.56652)" />
    <rect
       style="fill:none;stroke:#008000;stroke-width:0.33931559;stroke-miterlimit:4;stroke-opacity:1;stroke-dasharray:none"
       id="rect3057"
       width="63.440212"
       height="28.007141"
       x="66.913513"
       y="129.57578" />
    <rect
       style="fill:none;stroke:#ff0000;stroke-width:0.21888649;stroke-miterlimit:4;stroke-opacity:1;stroke-dasharray:none"
       id="rect3035-0"
       width="106.08033"
       height="56.474026"
       x="172.46182"
       y="121.20969" />
    <path
       sodipodi:type="arc"
       style="fill:none;stroke:#008000;stroke-width:0.25;stroke-miterlimit:4;stroke-opacity:1;stroke-dasharray:none"
       id="path3037-9"
       sodipodi:cx="29.623907"
       sodipodi:cy="954.09222"
       sodipodi:rx="4.6265774"
       sodipodi:ry="5.8004851"
       d="m 34.250484,954.09222 a 4.6265774,5.8004851 0 1 1 -9.253154,0 4.6265774,5.8004851 0 1 1 9.253154,0 z"
       transform="matrix(1.4956297,0,0,1.1929427,142.21922,-971.0141)" />
    <path
       sodipodi:type="arc"
       style="fill:none;stroke:#008000;stroke-width:0.25;stroke-miterlimit:4;stroke-opacity:1;stroke-dasharray:none"
       id="path3037-7-4"
       sodipodi:cx="29.623907"
       sodipodi:cy="954.09222"
       sodipodi:rx="4.6265774"
       sodipodi:ry="5.8004851"
       d="m 34.250484,954.09222 a 4.6265774,5.8004851 0 1 1 -9.253154,0 4.6265774,5.8004851 0 1 1 9.253154,0 z"
       transform="matrix(1.4956297,0,0,1.1929427,220.17198,-971.0141)" />
    <rect
       style="fill:none;stroke:#008000;stroke-width:0.4074935;stroke-miterlimit:4;stroke-opacity:1;stroke-dasharray:none"
       id="rect3057-8"
       width="91.718491"
       height="27.938963"
       x="179.64275"
       y="130.16238" />
    <rect
       style="fill:none;stroke:#ff0000;stroke-width:0.34698004;stroke-miterlimit:4;stroke-opacity:1;stroke-dasharray:none"
       id="rect3035-0-2"
       width="267.1727"
       height="56.345932"
       x="34.37904"
       y="46.942814" />
    <path
       sodipodi:type="arc"
       style="fill:none;stroke:#008000;stroke-width:0.25;stroke-miterlimit:4;stroke-opacity:1;stroke-dasharray:none"
       id="path3037-9-4"
       sodipodi:cx="29.623907"
       sodipodi:cy="954.09222"
       sodipodi:rx="4.6265774"
       sodipodi:ry="5.8004851"
       d="m 34.250484,954.09222 a 4.6265774,5.8004851 0 1 1 -9.253154,0 4.6265774,5.8004851 0 1 1 9.253154,0 z"
       transform="matrix(1.4956297,0,0,1.1929427,4.0723817,-1045.3449)" />
    <path
       sodipodi:type="arc"
       style="fill:none;stroke:#008000;stroke-width:0.25;stroke-miterlimit:4;stroke-opacity:1;stroke-dasharray:none"
       id="path3037-7-4-5"
       sodipodi:cx="29.623907"
       sodipodi:cy="954.09222"
       sodipodi:rx="4.6265774"
       sodipodi:ry="5.8004851"
       d="m 34.250484,954.09222 a 4.6265774,5.8004851 0 1 1 -9.253154,0 4.6265774,5.8004851 0 1 1 9.253154,0 z"
       transform="matrix(1.4956297,0,0,1.1929427,243.24561,-1045.3449)" />
    <rect
       style="fill:none;stroke:#008000;stroke-width:0.67312777;stroke-miterlimit:4;stroke-opacity:1;stroke-dasharray:none"
       id="rect3057-8-5"
       width="252.67332"
       height="27.673328"
       x="41.628727"
       y="55.964298" />
    <rect
       style="fill:none;stroke:#000080;stroke-width:0.23362176;stroke-miterlimit:4;stroke-opacity:1;stroke-dasharray:none"
       id="rect3211"
       width="306.89062"
       height="192.14285"
       x="11.785714"
       y="10.93361" />
  </g>
</svg>
