<?xml version="1.0" encoding="UTF-8" standalone="no"?>
<!-- Created with Inkscape (http://www.inkscape.org/) -->

<svg
   xmlns:dc="http://purl.org/dc/elements/1.1/"
   xmlns:cc="http://creativecommons.org/ns#"
   xmlns:rdf="http://www.w3.org/1999/02/22-rdf-syntax-ns#"
   xmlns:svg="http://www.w3.org/2000/svg"
   xmlns="http://www.w3.org/2000/svg"
   xmlns:sodipodi="http://sodipodi.sourceforge.net/DTD/sodipodi-0.dtd"
   xmlns:inkscape="http://www.inkscape.org/namespaces/inkscape"
   width="210mm"
   height="297mm"
   id="svg4928"
   version="1.1"
   inkscape:version="0.48.5 r10040"
   sodipodi:docname="Neues Dokument 43">
  <sodipodi:namedview
     id="base"
     pagecolor="#ffffff"
     bordercolor="#666666"
     borderopacity="1.0"
     inkscape:pageopacity="0.0"
     inkscape:pageshadow="2"
     inkscape:zoom="0.49497475"
     inkscape:cx="899.29812"
     inkscape:cy="579.50086"
     inkscape:document-units="px"
     inkscape:current-layer="svg4928"
     showgrid="false"
     inkscape:window-width="1515"
     inkscape:window-height="878"
     inkscape:window-x="-8"
     inkscape:window-y="-8"
     inkscape:window-maximized="1" />
  <defs
     id="defs4930" />
  <metadata
     id="metadata4933">
    <rdf:RDF>
      <cc:Work
         rdf:about="">
        <dc:format>image/svg+xml</dc:format>
        <dc:type
           rdf:resource="http://purl.org/dc/dcmitype/StillImage" />
        <dc:title></dc:title>
      </cc:Work>
    </rdf:RDF>
  </metadata>
  <g
     inkscape:label="Ebene 1"
     inkscape:groupmode="layer"
     id="layer1" />
  <g
     inkscape:label="newlayer"
     inkscape:groupmode="layer"
     id="g4989" />
  <g
     id="g5203"
     inkscape:groupmode="layer"
     inkscape:label="newlayer" />
  <path
     id="path5213"
     d="m 21.757146,23.560162 113.137794,0 0,-10.629921 106.79528,0 0,10.629921 113.13779,0"
     style="fill:none;stroke:#000000"
     inkscape:label="part"
     inkscape:connector-curvature="0" />
  <path
     id="path5215"
     d="m 354.82801,23.560162 0,113.137798 10.62992,0 0,106.79527 -10.62992,0 0,113.1378"
     style="fill:none;stroke:#000000"
     inkscape:label="part"
     inkscape:connector-curvature="0" />
  <path
     id="path5217"
     d="m 354.82801,356.63103 -113.13779,0 0,10.62992 -106.79528,0 0,-10.62992 -113.137794,0"
     style="fill:none;stroke:#000000"
     inkscape:label="part"
     inkscape:connector-curvature="0" />
  <path
     id="path5219"
     d="m 21.757146,356.63103 0,-113.1378 -10.629922,0 0,-106.79527 10.629922,0 0,-113.137798"
     style="fill:none;stroke:#000000"
     inkscape:label="part"
     inkscape:connector-curvature="0" />
  <path
     id="path5221"
     d="m 372.54455,12.930241 124.26378,0 0,10.629921 105.80315,0 0,-10.629921 124.26378,0"
     style="fill:none;stroke:#000000"
     inkscape:label="part"
     inkscape:connector-curvature="0" />
  <path
     id="path5223"
     d="m 726.87526,12.930241 0,124.263779 -10.62993,0 0,105.80315 10.62993,0 0,124.26378"
     style="fill:none;stroke:#000000"
     inkscape:label="part"
     inkscape:connector-curvature="0" />
  <path
     id="path5225"
     d="m 726.87526,367.26095 -124.26378,0 0,-10.62992 -105.80315,0 0,10.62992 -124.26378,0"
     style="fill:none;stroke:#000000"
     inkscape:label="part"
     inkscape:connector-curvature="0" />
  <path
     id="path5227"
     d="m 372.54455,367.26095 0,-124.26378 10.62992,0 0,-105.80315 -10.62992,0 0,-124.263779"
     style="fill:none;stroke:#000000"
     inkscape:label="part"
     inkscape:connector-curvature="0" />
</svg>
